HIERARCHY
ROOT Hips
{
  OFFSET 53.7595 94.3269 8.10058
  CHANNELS 6 Xposition Yposition Zposition Zrotation Xrotation Yrotation
  JOINT spine
  {
    OFFSET 0 7.80059 0.448573
    CHANNELS 3 Zrotation Xrotation Yrotation
    JOINT spine1
    {
      OFFSET 0 10.1364 0
      CHANNELS 3 Zrotation Xrotation Yrotation
      JOINT spine2
      {
        OFFSET 0 9.71251 0
        CHANNELS 3 Zrotation Xrotation Yrotation
        JOINT Neck
        {
          OFFSET 0 24.9361 1.18887
          CHANNELS 3 Zrotation Xrotation Yrotation
          JOINT Head
          {
            OFFSET 0 7.53384 0
            CHANNELS 3 Zrotation Xrotation Yrotation
            End Site
            {
              OFFSET 0 18.2361 -6.01402
            }
          }
        }
        JOINT RightShoulder
        {
          OFFSET -4.08965 10.4888 -0.569457
          CHANNELS 3 Zrotation Xrotation Yrotation
          JOINT RightArm
          {
            OFFSET 0 13.757 0
            CHANNELS 3 Zrotation Xrotation Yrotation
            JOINT RightArmRoll
            {
              OFFSET 0 6.94478 0
              CHANNELS 3 Zrotation Xrotation Yrotation
              JOINT RightForeArm
              {
                OFFSET 0 20.2277 0
                CHANNELS 3 Zrotation Xrotation Yrotation
                JOINT RightForeArmRoll
                {
                  OFFSET 0 7.79312 0
                  CHANNELS 3 Zrotation Xrotation Yrotation
                  JOINT RightHand
                  {
                    OFFSET 0 15.6391 0
                    CHANNELS 3 Zrotation Xrotation Yrotation
                    End Site
                    {
                      OFFSET 0 0 0
                    }
                  }
                }
              }
            }
          }
        }
        JOINT LeftShoulder
        {
          OFFSET 4.08965 10.4888 -0.569457
          CHANNELS 3 Zrotation Xrotation Yrotation
          JOINT LeftArm
          {
            OFFSET 0 13.757 0
            CHANNELS 3 Zrotation Xrotation Yrotation
            JOINT LeftArmRoll
            {
              OFFSET 0 6.94478 0
              CHANNELS 3 Zrotation Xrotation Yrotation
              JOINT LeftForeArm
              {
                OFFSET 0 20.2277 0
                CHANNELS 3 Zrotation Xrotation Yrotation
                JOINT LeftForeArmRoll
                {
                  OFFSET 0 7.79312 0
                  CHANNELS 3 Zrotation Xrotation Yrotation
                  JOINT LeftHand
                  {
                    OFFSET 0 15.6391 0
                    CHANNELS 3 Zrotation Xrotation Yrotation
                    End Site
                    {
                      OFFSET 0 0 0
                    }
                  }
                }
              }
            }
          }
        }
      }
    }
  }
  JOINT RightUpLeg
  {
    OFFSET -6.91416 -1.26788 -1.06358
    CHANNELS 3 Zrotation Xrotation Yrotation
    JOINT RightUpLegRoll
    {
      OFFSET 0 18.3378 0
      CHANNELS 3 Zrotation Xrotation Yrotation
      JOINT RightLeg
      {
        OFFSET 0 -22.7085 0
        CHANNELS 3 Zrotation Xrotation Yrotation
        JOINT RightLegRoll
        {
          OFFSET 0 22.7828 0
          CHANNELS 3 Zrotation Xrotation Yrotation
          JOINT RightFoot
          {
            OFFSET 0 18.9629 0
            CHANNELS 3 Zrotation Xrotation Yrotation
            JOINT RightToeBase
            {
              OFFSET 0 15.852 0
              CHANNELS 3 Zrotation Xrotation Yrotation
              End Site
              {
                OFFSET 0.00671906 7.67701 -0.884892
              }
            }
          }
        }
      }
    }
  }
  JOINT LeftUpLeg
  {
    OFFSET 6.91416 -1.26788 -1.06358
    CHANNELS 3 Zrotation Xrotation Yrotation
    JOINT LeftUpLegRoll
    {
      OFFSET 0 18.3379 0
      CHANNELS 3 Zrotation Xrotation Yrotation
      JOINT LeftLeg
      {
        OFFSET 0 22.7084 0
        CHANNELS 3 Zrotation Xrotation Yrotation
        JOINT LeftLegRoll
        {
          OFFSET 0 22.9934 0
          CHANNELS 3 Zrotation Xrotation Yrotation
          JOINT LeftFoot
          {
            OFFSET 0 18.7522 0
            CHANNELS 3 Zrotation Xrotation Yrotation
            JOINT LeftToeBase
            {
              OFFSET 0 15.852 0
              CHANNELS 3 Zrotation Xrotation Yrotation
              End Site
              {
                OFFSET -0.030112 7.67701 -0.884893
              }
            }
          }
        }
      }
    }
  }
}
MOTION
Frames: 10
Frame Time: 0.00208333
54.5126 110.781 7.56157 1.59922 2.16167 2.01903 -0.045778 0.615964 0.111085 -0.0941834 5.23466 0.228762 -0.0971213 6.87973 0.230663 -21.1733 -9.25963 -6.7141 19.6606 -4.84763 -5.44748 57.2536 -9.18075 -5.68527 105.909 6.19341 14.7776 -6.56457e-006 8.94001e-007 -2.3262e-006 8.96428 46.5569 -6.11403 -1.57795e-005 -3.05356e-006 -3.00001 8.02894 -4.95148 0.69771 -66.1451 -6.50356 4.36129 -102.954 8.65736 -18.4644 2.5475e-005 -1.14457e-006 -5.88214e-007 0.672398 29.4202 0.496111 4.44229e-006 -4.94735e-006 3.00001 -8.02974 -4.95153 -0.697703 177.742 45.2026 6.43333 180 7.01091e-015 177.67 -27.8303 73.9625 32.5184 3.26372e-006 1.72386e-006 1.98345 -16.6232 64.6002 17.0732 8.13649 25.2327 -3.48774 -175.255 42.8671 -16.8343 4.54188e-006 -4.6773e-006 -2.66944 154.261 -70.9465 148.819 -6.61618e-006 -3.50848e-006 -2.56059 16.1199 62.6605 -15.8772 -8.13649 25.2327 3.48774 
54.4405 110.74 7.56818 1.52967 2.18286 2.04477 -0.0491569 0.607151 0.106471 -0.100846 5.21704 0.219982 -0.10369 6.86211 0.221982 -20.9491 -9.22259 -6.67816 19.5184 -4.86736 -5.41806 57.5492 -9.13323 -5.6581 105.811 5.87643 14.561 -6.56457e-006 8.94001e-007 -2.3262e-006 9.10799 46.5623 -6.18054 -1.57795e-005 -3.05356e-006 -3.00001 8.02894 -4.95148 0.69771 -66.0906 -6.5218 4.36839 -103.111 8.42969 -18.4239 2.5475e-005 -1.14457e-006 -5.88214e-007 0.611417 29.3491 0.521417 4.44229e-006 -4.94735e-006 3.00001 -8.02974 -4.95153 -0.697703 177.866 45.0136 6.25457 180 7.01105e-015 177.698 -28.9342 74.7741 33.4462 3.26372e-006 1.72386e-006 1.95481 -16.6386 64.6448 17.1017 8.13649 25.2327 -3.48774 -175.22 42.7347 -16.577 4.54188e-006 -4.6773e-006 -2.6382 153.686 -71.6709 148.461 -6.61618e-006 -3.50849e-006 -2.52554 16.1418 62.7504 -15.9292 -8.13649 25.2327 3.48774 
54.4295 110.763 7.59593 1.46751 2.20229 2.08214 -0.0532339 0.597016 0.102459 -0.108919 5.19677 0.212498 -0.111687 6.84184 0.214623 -20.719 -9.17887 -6.64638 19.3669 -4.8732 -5.39721 57.8444 -9.08961 -5.63418 105.703 5.54908 14.3713 -6.56457e-006 8.94001e-007 -2.3262e-006 9.2454 46.5912 -6.24831 -1.57795e-005 -3.05356e-006 -3.00001 8.02894 -4.95148 0.69771 -66.0383 -6.52664 4.36838 -103.264 8.19972 -18.371 2.5475e-005 -1.14457e-006 -5.88214e-007 0.539142 29.2386 0.551278 4.44229e-006 -4.94735e-006 3.00001 -8.02974 -4.95153 -0.697703 177.955 44.797 6.12021 180 7.01118e-015 177.726 -30.2007 75.6087 34.5266 3.26372e-006 1.72386e-006 1.92551 -16.6563 64.6945 17.1337 8.13649 25.2327 -3.48774 -175.202 42.5847 -16.306 4.54188e-006 -4.67731e-006 -2.60664 153.016 -72.4419 148.018 -6.61618e-006 -3.50849e-006 -2.48968 16.1654 62.8434 -15.9832 -8.13649 25.2327 3.48774 
54.3622 110.679 7.60875 1.40835 2.22321 2.13256 -0.0578187 0.5846 0.0986851 -0.118013 5.17193 0.205557 -0.120713 6.817 0.207824 -20.4742 -9.12727 -6.61718 19.2003 -4.86787 -5.38339 58.1526 -9.04682 -5.61156 105.572 5.20479 14.2031 -6.56457e-006 8.94001e-007 -2.3262e-006 9.38047 46.654 -6.32044 -1.57795e-005 -3.05356e-006 -3.00001 8.02894 -4.95148 0.69771 -65.9866 -6.518 4.3611 -103.411 7.95799 -18.3087 2.5475e-005 -1.14457e-006 -5.88214e-007 0.454317 29.1084 0.586644 4.44229e-006 -4.94735e-006 3.00001 -8.02974 -4.95153 -0.697703 178.017 44.5523 6.02295 180 7.01133e-015 177.755 -31.6677 76.4827 35.7953 3.26372e-006 1.72387e-006 1.89422 -16.6772 64.752 17.1707 8.13649 25.2327 -3.48774 -175.195 42.4175 -16.0134 4.54188e-006 -4.67731e-006 -2.5734 152.247 -73.2758 147.492 -6.61618e-006 -3.5085e-006 -2.45165 16.1916 62.9432 -16.0415 -8.13649 25.2327 3.48774 
54.3492 110.74 7.66467 1.35218 2.24478 2.19419 -0.0629081 0.570273 0.0950999 -0.128119 5.14326 0.199058 -0.130759 6.78833 0.201486 -20.2175 -9.06859 -6.59017 19.0216 -4.85259 -5.37563 58.471 -9.00495 -5.59022 105.422 4.84642 14.0541 -6.56457e-006 8.94001e-007 -2.3262e-006 9.51352 46.7445 -6.39614 -1.57795e-005 -3.05356e-006 -3.00001 8.02894 -4.95148 0.69771 -65.9355 -6.4979 4.34765 -103.55 7.70607 -18.238 2.5475e-005 -1.14457e-006 -5.88214e-007 0.358452 28.9597 0.626748 4.44229e-006 -4.94735e-006 3.00001 -8.02974 -4.95153 -0.697703 178.054 44.2806 5.95791 180 7.01147e-015 177.787 -33.3902 77.3914 37.309 3.26372e-006 1.72387e-006 1.86116 -16.7011 64.8163 17.2123 8.13649 25.2327 -3.48774 -175.197 42.2327 -15.7018 4.54188e-006 -4.67732e-006 -2.53864 151.359 -74.1675 146.86 -6.61618e-006 -3.5085e-006 -2.41166 16.2202 63.0492 -16.1039 -8.13649 25.2327 3.48774 
54.3079 110.738 7.69248 1.29901 2.26615 2.26522 -0.068499 0.554408 0.0916534 -0.139233 5.11152 0.192903 -0.141818 6.75659 0.195508 -19.9517 -9.00365 -6.56499 18.8337 -4.82856 -5.37294 58.7968 -8.96413 -5.5701 105.257 4.47685 13.9222 -6.56457e-006 8.94001e-007 -2.3262e-006 9.64481 46.8568 -6.47457 -1.57795e-005 -3.05356e-006 -3.00001 8.02894 -4.95148 0.69771 -65.8849 -6.46839 4.32913 -103.685 7.44556 -18.1601 2.5475e-005 -1.14457e-006 -5.88214e-007 0.25306 28.7936 0.670825 4.44229e-006 -4.94735e-006 3.00001 -8.02974 -4.95153 -0.697703 178.071 43.9828 5.92017 180 7.01163e-015 177.819 -35.4427 78.3294 39.1441 3.26372e-006 1.72387e-006 1.82653 -16.7274 64.8862 17.2578 8.13649 25.2327 -3.48774 -175.207 42.0299 -15.374 4.54188e-006 -4.67732e-006 -2.50257 150.324 -75.1115 146.093 -6.61618e-006 -3.5085e-006 -2.36993 16.2512 63.1609 -16.1702 -8.13649 25.2327 3.48774 
54.2986 110.765 7.7546 1.24884 2.28648 2.34383 -0.0745881 0.537376 0.0882955 -0.151348 5.07744 0.186992 -0.153882 6.72251 0.189792 -19.6793 -8.93326 -6.54123 18.6396 -4.79698 -5.37436 59.1272 -8.92443 -5.55117 105.082 4.0989 13.8051 -6.56457e-006 8.94001e-007 -2.3262e-006 9.77458 46.9849 -6.55489 -1.57795e-005 -3.05356e-006 -3.00001 8.02894 -4.95148 0.69771 -65.8346 -6.43148 4.30666 -103.814 7.17808 -18.0761 2.5475e-005 -1.14457e-006 -5.88214e-007 0.139642 28.6116 0.718112 4.44229e-006 -4.94735e-006 3.00001 -8.02974 -4.95153 -0.697703 178.069 43.66 5.90485 180 7.01179e-015 177.853 -37.9289 79.2896 41.406 3.26372e-006 1.72387e-006 1.79054 -16.7558 64.9608 17.3065 8.13649 25.2327 -3.48774 -175.224 41.8088 -15.0324 4.54188e-006 -4.67732e-006 -2.46535 149.106 -76.1021 145.15 -6.61618e-006 -3.50851e-006 -2.32666 16.2847 63.2778 -16.2401 -8.13649 25.2327 3.48774 
54.269 110.833 7.78669 1.20171 2.30493 2.4282 -0.0811721 0.519549 0.0849765 -0.164458 5.04178 0.181225 -0.166944 6.68685 0.184237 -19.4032 -8.85824 -6.51851 18.442 -4.75907 -5.3789 59.4596 -8.88597 -5.53338 104.9 3.71543 13.7004 -6.56457e-006 8.94001e-007 -2.3262e-006 9.903 47.1227 -6.63619 -1.57795e-005 -3.05356e-006 -3.00001 8.02894 -4.95148 0.69771 -65.7847 -6.38921 4.28134 -103.939 6.90523 -17.9871 2.5475e-005 -1.14457e-006 -5.88214e-007 0.0196962 28.4148 0.767851 4.44229e-006 -4.94735e-006 3.00001 -8.02974 -4.95153 -0.697703 178.054 43.3132 5.90712 180 7.01194e-015 177.888 -40.9948 80.2626 44.2427 3.26372e-006 1.72387e-006 1.75338 -16.7858 65.0388 17.3579 8.13649 25.2327 -3.48774 -175.246 41.569 -14.6797 4.54188e-006 -4.67732e-006 -2.42718 147.653 -77.1327 143.979 -6.61618e-006 -3.50851e-006 -2.28205 16.3205 63.3995 -16.3135 -8.13649 25.2327 3.48774 
54.2626 110.867 7.85514 1.15764 2.32067 2.51651 -0.0882475 0.501298 0.0816462 -0.178554 5.00526 0.175503 -0.180995 6.65033 0.178743 -19.1261 -8.77939 -6.49645 18.2441 -4.71604 -5.38558 59.791 -8.84884 -5.51669 104.716 3.32925 13.606 -6.56457e-006 8.94001e-007 -2.3262e-006 10.0302 47.2642 -6.71753 -1.57795e-005 -3.05356e-006 -3.00001 8.02894 -4.95148 0.69771 -65.7351 -6.34361 4.25427 -104.061 6.62863 -17.8942 2.5475e-005 -1.14457e-006 -5.88214e-007 -0.105295 28.2044 0.819291 4.44229e-006 -4.94735e-006 3.00001 -8.02974 -4.95153 -0.697703 178.028 42.9433 5.92223 180 7.0121e-015 177.924 -44.8497 81.2354 47.8648 3.26372e-006 1.72387e-006 1.71526 -16.817 65.1193 17.4113 8.13649 25.2327 -3.48774 -175.272 41.3104 -14.3186 4.54188e-006 -4.67732e-006 -2.38823 145.894 -78.1963 142.507 -6.61618e-006 -3.50851e-006 -2.23631 16.3587 63.5254 -16.3899 -8.13649 25.2327 3.48774 
54.2294 110.786 7.88581 1.11666 2.33285 2.60692 -0.095811 0.482997 0.0782548 -0.193632 4.96865 0.169727 -0.196028 6.61372 0.173212 -18.8505 -8.69754 -6.47466 18.0487 -4.66909 -5.39344 60.1188 -8.81315 -5.50105 104.533 2.94318 13.5195 -6.56457e-006 8.94001e-007 -2.3262e-006 10.1561 47.4035 -6.79789 -1.57795e-005 -3.05356e-006 -3.00001 8.02894 -4.95148 0.69771 -65.6856 -6.29671 4.22656 -104.18 6.34991 -17.7984 2.5475e-005 -1.14457e-006 -5.88214e-007 -0.233862 27.9818 0.871687 4.44229e-006 -4.94735e-006 3.00001 -8.02974 -4.95153 -0.697703 177.995 42.5513 5.94548 180 7.01226e-015 177.96 -49.7931 82.1886 52.5736 3.26372e-006 1.72387e-006 1.67639 -16.8489 65.2012 17.4659 8.13649 25.2327 -3.48774 -175.302 41.0327 -13.9516 4.54188e-006 -4.67732e-006 -2.3487 143.726 -79.2842 140.629 -6.61618e-006 -3.5085e-006 -2.18965 16.3992 63.655 -16.4692 -8.13649 25.2327 3.48774 
